<?xml version="1.0" standalone="no"?>
<!DOCTYPE svg PUBLIC "-//W3C//DTD SVG 20010904//EN"
 "http://www.w3.org/TR/2001/REC-SVG-20010904/DTD/svg10.dtd">
<svg version="1.0" xmlns="http://www.w3.org/2000/svg"
 width="260.000000pt" height="260.000000pt" viewBox="0 0 260.000000 260.000000"
 preserveAspectRatio="xMidYMid meet">
<metadata>
Created by potrace 1.11, written by Peter Selinger 2001-2013
</metadata>
<g transform="translate(0.000000,260.000000) scale(0.100000,-0.100000)"
fill="#000000" stroke="none">
<path d="M0 1300 l0 -1300 1300 0 1300 0 0 1300 0 1300 -1300 0 -1300 0 0
-1300z m848 623 c14 -12 95 -224 248 -650 189 -527 225 -635 214 -648 -16 -19
-139 -21 -161 -2 -9 6 -37 73 -63 147 -26 74 -52 147 -58 163 l-10 27 -273 0
-273 0 -52 -157 c-32 -96 -60 -165 -72 -176 -14 -11 -37 -17 -73 -17 -68 0
-85 7 -85 35 0 12 66 204 146 426 80 222 181 503 224 624 44 122 87 225 96
232 28 21 167 17 192 -4z m1255 -22 c85 -33 137 -78 172 -146 27 -53 30 -67
29 -149 0 -63 -6 -103 -18 -129 -21 -47 -80 -113 -120 -134 l-31 -16 25 -7
c84 -23 164 -93 202 -175 19 -42 23 -67 23 -150 0 -87 -3 -107 -27 -157 -48
-104 -160 -183 -292 -207 -33 -6 -159 -11 -281 -11 -207 0 -223 1 -239 19 -17
19 -18 62 -18 637 1 579 2 617 19 636 17 19 28 20 258 16 220 -4 245 -6 298
-27z"/>
<path d="M735 1739 c-15 -42 -215 -631 -215 -635 0 -2 101 -4 225 -4 124 0
225 2 225 3 0 2 -36 109 -81 238 -45 129 -94 272 -110 318 -32 92 -36 101 -44
80z"/>
<path d="M1700 1579 l0 -211 143 4 c134 3 145 4 190 31 65 38 91 90 91 182 1
154 -78 205 -314 205 l-110 0 0 -211z"/>
<path d="M1700 995 l0 -237 163 4 c169 6 209 14 265 55 53 39 77 96 76 180 -1
100 -35 155 -119 198 -57 29 -63 30 -222 34 l-163 3 0 -237z"/>
</g>
</svg>
